<svg xmlns="http://www.w3.org/2000/svg" width="94.151" height="70.547" viewBox="0 0 94.151 70.547">
  <g id="Group_5" data-name="Group 5" transform="translate(-633.785 -332.041)">
    <g id="Group_1" data-name="Group 1" transform="translate(644.841 372.571)">
      <ellipse id="Ellipse_1" data-name="Ellipse 1" cx="4.587" cy="4.332" rx="4.587" ry="4.332" transform="translate(32.542 21.353)" fill="#e66060"/>
      <path id="Path_1" data-name="Path 1" d="M1553.464,1504.037l-11.789-.077-.87-.246s-8.188-4.27-12.477-4.34-7.785.92-8.272,1.476,5.408-6.111,10.84-5.528,10.079,1.332,10.079,1.332-3.3-2.723-2.148-8.677-3.681-10.531-3.681-10.531,8.258,11.59,9.664,15.057,8.108,5.982,8.415,5.778a56.066,56.066,0,0,1,5.863,0h0" transform="translate(-1520.027 -1477.447)" fill="#e66060"/>
      <path id="Path_7" data-name="Path 7" d="M1525.65,1504.037l11.789-.077.87-.246s8.188-4.27,12.478-4.34,7.785.92,8.272,1.476-5.408-6.111-10.839-5.528-10.079,1.332-10.079,1.332,3.3-2.723,2.148-8.677,3.681-10.531,3.681-10.531-8.258,11.59-9.664,15.057-8.109,5.982-8.415,5.778a56.062,56.062,0,0,0-5.863,0h0" transform="translate(-1489.449 -1477.447)" fill="#e66060"/>
    </g>
    <path id="Subtraction_1" data-name="Subtraction 1" d="M17.837,37.469c-.458,0-.92-.018-1.374-.055,7.809-.678,13.927-7.664,13.927-15.9,0-8.8-6.816-15.959-15.195-15.959C7.349,5.551.7,11.976.052,20.178.017,19.7,0,19.212,0,18.735a19.429,19.429,0,0,1,1.4-7.292A18.751,18.751,0,0,1,5.224,5.487a17.758,17.758,0,0,1,5.67-4.015,17.108,17.108,0,0,1,13.886,0,17.758,17.758,0,0,1,5.67,4.015,18.751,18.751,0,0,1,3.823,5.955,19.669,19.669,0,0,1,0,14.585,18.752,18.752,0,0,1-3.823,5.955A17.757,17.757,0,0,1,24.781,36,17,17,0,0,1,17.837,37.469Z" transform="matrix(0.719, -0.695, 0.695, 0.719, 655.136, 356.823)" fill="#e66060"/>
    <path id="Subtraction_2" data-name="Subtraction 2" d="M17.837,37.469c-.458,0-.92-.018-1.374-.055,7.809-.678,13.927-7.664,13.927-15.9,0-8.8-6.816-15.959-15.195-15.959C7.349,5.551.7,11.976.052,20.178.017,19.7,0,19.212,0,18.735a19.429,19.429,0,0,1,1.4-7.292A18.751,18.751,0,0,1,5.224,5.487a17.758,17.758,0,0,1,5.67-4.015,17.108,17.108,0,0,1,13.886,0,17.758,17.758,0,0,1,5.67,4.015,18.751,18.751,0,0,1,3.823,5.955,19.669,19.669,0,0,1,0,14.585,18.752,18.752,0,0,1-3.823,5.955A17.757,17.757,0,0,1,24.781,36,17,17,0,0,1,17.837,37.469Z" transform="translate(695.604 346.823) rotate(25)" fill="#e66060"/>
    <path id="Subtraction_3" data-name="Subtraction 3" d="M17.837,0c-.458,0-.92.018-1.374.055,7.809.678,13.927,7.664,13.927,15.9,0,8.8-6.816,15.959-15.195,15.959C7.349,31.918.7,25.493.052,17.291.017,17.772,0,18.257,0,18.735a19.429,19.429,0,0,0,1.4,7.292,18.751,18.751,0,0,0,3.823,5.955A17.758,17.758,0,0,0,10.894,36a17.108,17.108,0,0,0,13.886,0,17.758,17.758,0,0,0,5.67-4.015,18.751,18.751,0,0,0,3.823-5.955,19.669,19.669,0,0,0,0-14.585A18.752,18.752,0,0,0,30.45,5.487a17.757,17.757,0,0,0-5.67-4.015A17,17,0,0,0,17.837,0Z" transform="translate(681.953 380.605) rotate(155)" fill="#e66060"/>
    <path id="Path_6" data-name="Path 6" d="M1533.1,1474.013s-1.628-4.3,0-5.46,1.872-4.067,1.872-4.067.69,3.226.543,2.771,2.173-3.86,1.471-5.341,3.607,3.789,3.627,5.608.091,5.177-.769,6.489,5.042-3.586,5.219-6.228-.169-5.4-1.013-6.768-3.036-4.126-3.036-4.126.792,2.776.335,3.207a4.48,4.48,0,0,0-.737.92,9.314,9.314,0,0,0-1.715-4.725,11.98,11.98,0,0,0-3.662-3.1s0,4.236-.824,5.308-2.732,4.24-2.732,4.24a32.3,32.3,0,0,0-.844-3.506c-.1.148-.623,2.472-.82,2.679s-1.51,4.35-1.51,4.35-1.541,2.38.982,4.894,3.611,2.852,3.611,2.852" transform="translate(-857.031 -1090.367)" fill="#e66060"/>
  </g>
</svg>
