<svg xmlns="http://www.w3.org/2000/svg" width="205.634" height="199.814" viewBox="0 0 205.634 199.814">
  <g id="Group_16" data-name="Group 16" transform="translate(-1057.998 -1186)">
    <path id="Path_17" data-name="Path 17" d="M1019.648,1229l7.049,86.233" transform="translate(52.616 30.158)" fill="none" stroke="#3b5441" stroke-linecap="round" stroke-width="5"/>
    <path id="Path_18" data-name="Path 18" d="M1019.923,1241.4l8.6,81.829" transform="matrix(-0.105, 0.995, -0.995, -0.105, 2498.756, 366.03)" fill="none" stroke="#3b5441" stroke-linecap="round" stroke-width="5"/>
    <path id="Path_19" data-name="Path 19" d="M1019.648,1229l15.25,28.391" transform="translate(986.251 -328.509) rotate(33)" fill="none" stroke="#3b5441" stroke-linecap="round" stroke-width="5"/>
    <path id="Path_20" data-name="Path 20" d="M1037.6,1237.233v39.277s2.141,6.6,6.834,5.984,6.4-5.984,6.4-5.984v-31.839s2.374-4.625,6.464-4.446,6.217,5.736,6.217,5.736v11.4s3.239,5.421,6.779,4.57,6.345-4.686,6.345-4.686l.051-20.867" transform="translate(49.5 24)" fill="none" stroke="#e66060" stroke-linecap="round" stroke-width="5"/>
    <g id="Subtraction_6" data-name="Subtraction 6" transform="translate(1084.5 1312)" fill="#fff" stroke-linecap="round">
      <path d="M 9 15.5 C 5.415890216827393 15.5 2.5 12.58411026000977 2.5 9 C 2.5 5.415890216827393 5.415890216827393 2.5 9 2.5 C 12.58411026000977 2.5 15.5 5.415890216827393 15.5 9 C 15.5 12.58411026000977 12.58411026000977 15.5 9 15.5 Z M 9 3.50029993057251 C 5.967460155487061 3.50029993057251 3.50029993057251 5.967460155487061 3.50029993057251 9 C 3.50029993057251 12.0325403213501 5.967460155487061 14.49969959259033 9 14.49969959259033 C 12.0325403213501 14.49969959259033 14.49969959259033 12.0325403213501 14.49969959259033 9 C 14.49969959259033 5.967460155487061 12.0325403213501 3.50029993057251 9 3.50029993057251 Z" stroke="none"/>
      <path d="M 9 18 C 4.037380218505859 18 0 13.96261978149414 0 9 C 0 4.037380218505859 4.037380218505859 0 9 0 C 13.96261978149414 0 18 4.037380218505859 18 9 C 18 13.96261978149414 13.96261978149414 18 9 18 Z M 9 6.00029993057251 C 7.345960140228271 6.00029993057251 6.00029993057251 7.345960140228271 6.00029993057251 9 C 6.00029993057251 10.65404033660889 7.345960140228271 11.99969959259033 9 11.99969959259033 C 10.65404033660889 11.99969959259033 11.99969959259033 10.65404033660889 11.99969959259033 9 C 11.99969959259033 7.345960140228271 10.65404033660889 6.00029993057251 9 6.00029993057251 Z" stroke="none" fill="#e66060"/>
    </g>
    <path id="Path_21" data-name="Path 21" d="M1019.648,1229l37.346,64.685" transform="translate(2737.585 1081.515) rotate(120)" fill="none" stroke="#3b5441" stroke-linecap="round" stroke-width="5"/>
    <path id="Path_23" data-name="Path 23" d="M1012.076,1239.569s-9.211-56.952,30.142-71.062" transform="translate(49.5 24)" fill="none" stroke="#3b5441" stroke-linecap="round" stroke-width="5"/>
    <path id="Path_24" data-name="Path 24" d="M1041.282,1239.569s9.211-56.952-30.142-71.062" transform="translate(138.5 24)" fill="none" stroke="#3b5441" stroke-linecap="round" stroke-width="5"/>
    <g id="Subtraction_7" data-name="Subtraction 7" transform="translate(1094 1186)" fill="none" stroke-linecap="round">
      <path d="M53,14H0V0H53V14ZM9,4v6H46V4Z" stroke="none"/>
      <path d="M 53.0001106262207 14.00040054321289 L 4.439589702087687e-06 14.00040054321289 L 4.439589702087687e-06 2.716064386731887e-07 L 53.0001106262207 2.716064386731887e-07 L 53.0001106262207 13.99940013885498 L 53.0001106262207 14.00040054321289 Z M 9.000004768371582 3.999600172042847 L 9.000004768371582 9.999894142150879 L 45.99989700317383 9.999894142150879 L 45.99989700317383 3.999600172042847 L 9.000004768371582 3.999600172042847 Z" stroke="none" fill="#3b5441"/>
    </g>
    <path id="Path_25" data-name="Path 25" d="M1128.606,1270.612l-25.242,26.1L1132.643,1326l26.1-24.929" transform="translate(49.5 24)" fill="#fff" stroke="#e66060" stroke-linecap="round" stroke-linejoin="round" stroke-width="5"/>
    <path id="Path_26" data-name="Path 26" d="M1131.055,1265.674l30.671,31.905,13.405-10.975-13.5-13.718-18.014-18.3-10.818,11.093" transform="translate(50.5 22)" fill="none" stroke="#3b5441" stroke-linecap="round" stroke-linejoin="round" stroke-width="5"/>
    <line id="Line_1" data-name="Line 1" x1="15" y2="15" transform="translate(1170 1303.5)" fill="none" stroke="#e66060" stroke-linecap="round" stroke-width="5"/>
    <line id="Line_2" data-name="Line 2" x1="15" y2="15" transform="translate(1177 1311.5)" fill="none" stroke="#e66060" stroke-linecap="round" stroke-width="5"/>
    <line id="Line_3" data-name="Line 3" x1="15" y2="15" transform="translate(1185 1319.5)" fill="none" stroke="#e66060" stroke-linecap="round" stroke-width="5"/>
    <path id="Path_27" data-name="Path 27" d="M1150.5,1253.013h15.42l32.023-36.962s17.6-6.938,12.9,10.818" transform="translate(49.5 24)" fill="none" stroke="#3b5441" stroke-linecap="round" stroke-linejoin="round" stroke-width="5"/>
  </g>
</svg>
