<svg xmlns="http://www.w3.org/2000/svg" width="1935" height="1207.001" viewBox="0 0 1935 1207.001">
  <path id="Subtraction_15" data-name="Subtraction 15" d="M1935,1207h-63.843a68.5,68.5,0,0,0-1.252-16.215,54.014,54.014,0,0,1-.115-19.637,64.775,64.775,0,0,1,5.37-16.548c-11.069,16.114-25.9,38.284-33.682,52.4h-117.81c-7.78-14.112-22.611-36.284-33.682-52.4a64.806,64.806,0,0,1,5.372,16.546,54.08,54.08,0,0,1-.117,19.637,68.522,68.522,0,0,0-1.252,16.215h-51.258a89.506,89.506,0,0,1-34.566-38.669,91.574,91.574,0,0,1-5.872-16.583,89.69,89.69,0,0,1-2.516-16.833,88.576,88.576,0,0,1,.685-16.623,87.087,87.087,0,0,1,3.731-15.951,84.68,84.68,0,0,1,6.621-14.818,81.8,81.8,0,0,1,9.357-13.224,78.995,78.995,0,0,1,26.3-19.819,78.1,78.1,0,0,1,16.407-5.531,79.676,79.676,0,0,1,16.881-1.8,82.371,82.371,0,0,1,10.4.664c0,.577,0,1.01,0,1.449a102.214,102.214,0,0,0,7.56,37.827,105.875,105.875,0,0,0,22.119,33.9c1.8,1.872,3.712,3.71,5.67,5.463a88.763,88.763,0,0,1-17.93-36.026,87.629,87.629,0,0,1-2.359-19.4,85.252,85.252,0,0,1,2.006-19.2,88.244,88.244,0,0,1,47.758,40.025c-.92-2.418-1.952-4.858-3.067-7.252a105.91,105.91,0,0,0-23.724-32.8,103.826,103.826,0,0,0-16.969-12.88,79.622,79.622,0,0,1,7.613-14.415,78.09,78.09,0,0,1,10.661-12.759,80.418,80.418,0,0,1,56.243-22.393,86.578,86.578,0,0,1,17.157,1.726,88.488,88.488,0,0,1,16.728,5.163,89.587,89.587,0,0,1,15.728,8.577,91.431,91.431,0,0,1,14.162,11.967,89.647,89.647,0,0,1,16.475,23.738,103.876,103.876,0,0,0-15.931,12.242,105.885,105.885,0,0,0-23.725,32.8c-1.106,2.369-2.138,4.809-3.068,7.252a88.279,88.279,0,0,1,47.523-39.94,87.223,87.223,0,0,1,2.38,41.551,81.154,81.154,0,0,1-6.441,19.769,78.211,78.211,0,0,1-11.6,17.693c1.914-1.574,3.8-3.252,5.6-4.99a92.645,92.645,0,0,0,21.649-32.065,96.774,96.774,0,0,0,7.031-37.215c-.021-2.978-.176-5.991-.458-8.956a82.336,82.336,0,0,1,9.543-.56,79.738,79.738,0,0,1,16.879,1.8,78.173,78.173,0,0,1,16.406,5.531c1.076.5,2.162,1.039,3.228,1.595V1207Zm-151.071-80.608h0c.859,0,5.7,5.56,10.66,12.723a97.3,97.3,0,0,1,6.469,10.584c1.917,3.744,2.9,6.662,2.921,8.673l.006.511.007.563v.009c.058,5.023.138,11.9-.362,18.345a65.818,65.818,0,0,1-1.26,9.1,21.174,21.174,0,0,1-2.58,6.848c-.379.581-.527.954-.442,1.11a.187.187,0,0,0,.181.085c.63,0,2.714-1.417,5.439-3.7a114.313,114.313,0,0,0,9.55-9.092c4.917-5.236,13.238-15.1,13.724-22.351a102.782,102.782,0,0,0-.674-21.05c-.972-6.8-2.648-12.277-4.849-15.843-4.374-7.089-16.052-21.865-16.546-22.491a.02.02,0,0,0,0,.009l0,.014.009.028c.265.958,1.18,4.353,1.832,7.807.7,3.721,1.264,8.41-.023,9.619a24.236,24.236,0,0,0-4.017,5.012.092.092,0,0,1,0-.017,51.454,51.454,0,0,0-1.408-8.643,52.567,52.567,0,0,0-2.805-8.328,41.433,41.433,0,0,0-5.133-8.77,65.312,65.312,0,0,0-13.245-12.66,56.409,56.409,0,0,0-6.717-4.222v.046c-.006,1.018-.06,6.395-.563,12.231a81.912,81.912,0,0,1-1.334,9.67c-.7,3.3-1.573,5.653-2.6,6.985-4.168,5.42-13.8,21.3-14.88,23.094l-.006.01,0,.006,0,0c-.039-.192-3.9-19.137-4.56-19.137a.043.043,0,0,0-.037.024,44.322,44.322,0,0,0-1.488,5.09l0,.009-.005.022-.011.043,0,.01,0,.005-.008.03c-1.029,3.886-2.309,8.721-2.952,9.394-1.057,1.11-7.938,22.793-8.23,23.715a18.989,18.989,0,0,0-2.482,8.2,20.213,20.213,0,0,0,1.194,8.528,27.569,27.569,0,0,0,6.639,9.952,108.474,108.474,0,0,0,15,12.914,21.035,21.035,0,0,0,4.687,2.634l-.009-.02a75.7,75.7,0,0,1-3.321-12.489,34.132,34.132,0,0,1-.415-9.934c.46-3.414,1.72-5.876,3.745-7.319a19.21,19.21,0,0,0,5.339-6.133,35.041,35.041,0,0,0,3.092-7.325,47.366,47.366,0,0,0,1.776-8.713.024.024,0,0,1,0,.01l0,.012c0,.015.009.037.014.066l.051.233,0,.015c1.536,7.229,2.56,12.251,2.884,14.142a34.846,34.846,0,0,1,2.613-6.3l.014-.029,0-.008.005-.012,0-.008.008-.017a95.46,95.46,0,0,0,4.839-11.586c1.483-4.714,1.659-8.157.537-10.525-.354-.75-.485-1.206-.39-1.357A.122.122,0,0,1,1783.928,1126.393Zm-7.744,29.9a1.383,1.383,0,0,0,0,.626c.05.158.084.238.1.238A3.289,3.289,0,0,0,1776.184,1156.3Zm-101.008-22.918.012.016c1.143,1.609,7.229,10.193,14.8,21.207a81.6,81.6,0,0,0-9.731-15.512A63.016,63.016,0,0,0,1675.176,1133.378Zm214.791,0h0a61.813,61.813,0,0,0-5.075,5.711,81.371,81.371,0,0,0-9.731,15.51c7.447-10.842,13.624-19.556,14.787-21.193l.021-.028ZM1608.236,1207H64.7a26.191,26.191,0,0,0,8.422-1.555,25.281,25.281,0,0,0,7.144-3.988,24.093,24.093,0,0,0,5.352-5.934,22.67,22.67,0,0,0,3.044-7.391l34.709-.227,4.744-1.338c.467-.242,11.587-6,25.239-11.687a232.024,232.024,0,0,1,22.286-8.113c8.266-2.473,15.161-3.77,20.494-3.857.77-.013,1.56-.019,2.35-.019a137.923,137.923,0,0,1,27.912,2.751c7,1.462,12.549,3.368,14.476,4.974a139.376,139.376,0,0,0-17.029-14.736,97.229,97.229,0,0,0-17.782-10.489c-7.162-3.163-13.954-4.767-20.184-4.767a35.186,35.186,0,0,0-3.738.2c-29.4,3.156-54.692,7.219-54.944,7.26l.012-.01a29.385,29.385,0,0,0,4.264-4.832,45.422,45.422,0,0,0,6.958-14.91c.551.273,1.179.575,1.868.9a92.636,92.636,0,0,0,37.695,8.722c.543.011,1.132.016,1.751.016a96.956,96.956,0,0,0,35.51-6.79,102.237,102.237,0,0,0,32.605-20.615,107.228,107.228,0,0,0,33.6-72.056,102.217,102.217,0,0,0-5.167-38.227,96.78,96.78,0,0,0-18.763-32.9,93.256,93.256,0,0,0-68.605-31.991c-.564-.011-1.154-.016-1.753-.016a96.658,96.658,0,0,0-32.5,5.664,105.179,105.179,0,0,0-3.83-11.233,107.226,107.226,0,0,0-55.229-57.191,102.186,102.186,0,0,0-37.541-8.876c-1.4-.059-2.832-.089-4.264-.089a96.48,96.48,0,0,0-33.173,5.815A93.026,93.026,0,0,0,0,880.053V607.044c2.208-.1,4.451-.152,6.667-.152.832,0,1.621.006,2.346.019,5.336.086,12.231,1.384,20.493,3.857a231.6,231.6,0,0,1,22.285,8.113c13.8,5.75,24.778,11.446,25.239,11.686l4.746,1.339,59.925.391a22.665,22.665,0,0,0,3.14,7.432,24.113,24.113,0,0,0,5.478,5.93,25.309,25.309,0,0,0,7.285,3.926,26.506,26.506,0,0,0,17.162-.015,25.3,25.3,0,0,0,7.31-3.964,23.486,23.486,0,0,0,8.588-13.475l34.708-.227,4.744-1.338c.11-.058,11.174-5.826,25.24-11.687a231.592,231.592,0,0,1,22.285-8.113c8.263-2.473,15.158-3.77,20.494-3.857.768-.013,1.558-.02,2.349-.02a138.046,138.046,0,0,1,27.914,2.751c7.007,1.464,12.555,3.372,14.478,4.978a139.494,139.494,0,0,0-17.032-14.738,97.161,97.161,0,0,0-17.782-10.489c-7.164-3.163-13.955-4.767-20.184-4.767a35.163,35.163,0,0,0-3.739.2c-29.515,3.168-54.693,7.22-54.944,7.26a29.017,29.017,0,0,0,4.276-4.841,45.435,45.435,0,0,0,6.958-14.911c.66.325,1.27.619,1.868.9a92.655,92.655,0,0,0,37.694,8.722c.565.011,1.154.016,1.75.016a96.961,96.961,0,0,0,35.512-6.789,102.233,102.233,0,0,0,32.605-20.615,107.227,107.227,0,0,0,33.6-72.056,102.2,102.2,0,0,0-5.167-38.228,96.776,96.776,0,0,0-18.763-32.9,93.256,93.256,0,0,0-68.605-31.991c-.586-.011-1.176-.016-1.753-.016a96.648,96.648,0,0,0-32.5,5.665,106.989,106.989,0,0,0-59.059-68.424,102.2,102.2,0,0,0-37.541-8.876c-1.423-.06-2.857-.09-4.264-.09a96.46,96.46,0,0,0-33.173,5.816,93.266,93.266,0,0,0-54.452,52.584A95.825,95.825,0,0,0,62.92,383.84,96.641,96.641,0,0,0,31.07,378.4c-.6,0-1.187.005-1.751.016A92.734,92.734,0,0,0,0,383.714V0H360.3l-.1.234-.019.042c-.051.113-.1.232-.16.358A105.849,105.849,0,0,0,351,40.1a105.9,105.9,0,0,0,6.25,39.994,102.193,102.193,0,0,0,19.692,33.17,96.76,96.76,0,0,0,30.125,22.952,92.6,92.6,0,0,0,37.546,9.342c1.108.039,2.225.058,3.32.058a92.7,92.7,0,0,0,34.786-6.758,96.616,96.616,0,0,0,29.32-18.581,104.9,104.9,0,0,0,7.915,8.844,107.229,107.229,0,0,0,73.185,31.065c.771.012,1.416.018,1.972.018a102.081,102.081,0,0,0,36.052-6.517,96.8,96.8,0,0,0,32.224-19.9A93.259,93.259,0,0,0,692.961,64.1a96.021,96.021,0,0,0-2.107-18.436,96.467,96.467,0,0,0,33.046-8.14,92.655,92.655,0,0,0,31.29-22.757A93.964,93.964,0,0,0,766.078,0h761.981l-.065.187-.04.123a102.17,102.17,0,0,0-5.168,38.228,105.937,105.937,0,0,0,9.875,39.258,105.9,105.9,0,0,0,23.724,32.8,102.212,102.212,0,0,0,32.607,20.615A96.959,96.959,0,0,0,1624.5,138c.65,0,1.239-.005,1.75-.016a92.766,92.766,0,0,0,27.687-4.733,43.855,43.855,0,0,0,6.451,11.945,27.249,27.249,0,0,0,3.56,3.888h-.013c-2.645-.423-26.657-4.223-54.928-7.259a35.106,35.106,0,0,0-3.74-.2c-6.235,0-13.026,1.6-20.184,4.767a97.04,97.04,0,0,0-17.783,10.489,140,140,0,0,0-17.036,14.741,3.235,3.235,0,0,0-.346.335l-.028.031-.049.058-.021.024-.014.016-.005.006a.269.269,0,0,0-.038.046s.046-.046.095-.1l.018-.019.015-.015.054-.055.014-.013.011-.013.063-.066.108-.111.124-.128c1.918-1.607,7.464-3.515,14.476-4.979a138.031,138.031,0,0,1,27.92-2.752c.794,0,1.584.006,2.349.019,5.329.086,12.224,1.384,20.492,3.857a231.5,231.5,0,0,1,22.285,8.114c13.84,5.766,24.779,11.446,25.238,11.685l4.747,1.339,59.926.392a22.642,22.642,0,0,0,3.138,7.433,24.144,24.144,0,0,0,5.479,5.93,25.3,25.3,0,0,0,7.284,3.925,26.517,26.517,0,0,0,17.163-.014,25.4,25.4,0,0,0,7.311-3.964,23.484,23.484,0,0,0,8.587-13.476l34.708-.227,4.745-1.338.006,0,.007,0c.464-.241,11.518-5.968,25.227-11.678a230.876,230.876,0,0,1,22.285-8.114c8.268-2.473,15.163-3.77,20.494-3.857.762-.013,1.552-.019,2.348-.019a138.028,138.028,0,0,1,27.914,2.75c7.009,1.464,12.557,3.371,14.479,4.978a139.719,139.719,0,0,0-17.032-14.739,97.311,97.311,0,0,0-17.783-10.489c-7.163-3.163-13.953-4.767-20.182-4.767a35.117,35.117,0,0,0-3.74.2c-28.7,3.082-54.693,7.22-54.943,7.26l0,0a29.512,29.512,0,0,0,4.271-4.837,45.514,45.514,0,0,0,6.958-14.911c.6.3,1.231.6,1.867.9a92.687,92.687,0,0,0,37.7,8.722c.6.011,1.184.016,1.75.016a96.961,96.961,0,0,0,35.511-6.79A102.189,102.189,0,0,0,1935,112.354v914.531a93.691,93.691,0,0,0-15.077-1.5c-.556-.011-1.146-.016-1.753-.016a96.651,96.651,0,0,0-32.5,5.664,106.988,106.988,0,0,0-59.06-68.423,102.174,102.174,0,0,0-37.541-8.876c-1.431-.06-2.865-.09-4.263-.09a96.429,96.429,0,0,0-33.173,5.816,93.257,93.257,0,0,0-54.452,52.584,95.659,95.659,0,0,0-5.263,17.794,96.6,96.6,0,0,0-31.85-5.435c-.624,0-1.214.005-1.752.015a93.262,93.262,0,0,0-68.605,31.991,96.789,96.789,0,0,0-18.76,32.9,102.146,102.146,0,0,0-5.168,38.228,106.272,106.272,0,0,0,42.448,79.46l0,0h0ZM240.879,1170.624h0l.16.163.13.135.017.018.015.016c.134.139.175.18.179.181s-.014-.02-.154-.18A3.136,3.136,0,0,0,240.879,1170.624Zm966.782-199.733h0c.781,0,1.572.006,2.352.019,5.331.086,12.226,1.384,20.494,3.856a231.7,231.7,0,0,1,22.284,8.114c13.445,5.6,24.072,11.079,25.239,11.685l4.746,1.339,59.925.391a22.737,22.737,0,0,0,3.139,7.432,24.129,24.129,0,0,0,5.48,5.93,25.3,25.3,0,0,0,7.284,3.926,26.513,26.513,0,0,0,17.163-.014,25.388,25.388,0,0,0,7.311-3.964,23.5,23.5,0,0,0,8.587-13.475l34.708-.227,4.745-1.338c.106-.056,11.254-5.859,25.238-11.686a231.431,231.431,0,0,1,22.286-8.114c8.268-2.473,15.163-3.77,20.493-3.856.784-.013,1.575-.019,2.349-.019a138.116,138.116,0,0,1,27.913,2.75c7.012,1.465,12.558,3.373,14.476,4.978a139.466,139.466,0,0,0-17.03-14.738,97.2,97.2,0,0,0-17.783-10.489c-7.164-3.163-13.954-4.767-20.183-4.767a35.371,35.371,0,0,0-3.74.2c-29.818,3.2-54.695,7.22-54.942,7.26l.01-.009a29.4,29.4,0,0,0,4.266-4.832,45.5,45.5,0,0,0,6.958-14.91c.593.294,1.22.6,1.867.9a92.658,92.658,0,0,0,37.695,8.722c.583.011,1.156.016,1.752.016a96.962,96.962,0,0,0,35.51-6.79,102.231,102.231,0,0,0,32.605-20.615,107.226,107.226,0,0,0,33.6-72.056,102.2,102.2,0,0,0-5.167-38.228,96.758,96.758,0,0,0-18.764-32.9,93.252,93.252,0,0,0-68.6-31.991c-.587-.011-1.175-.016-1.748-.016a96.684,96.684,0,0,0-32.5,5.665,104.684,104.684,0,0,0-3.829-11.234,107.212,107.212,0,0,0-55.23-57.19,102.164,102.164,0,0,0-37.54-8.876c-1.39-.06-2.825-.09-4.263-.09a96.441,96.441,0,0,0-33.173,5.816,93.256,93.256,0,0,0-54.452,52.585,95.6,95.6,0,0,0-5.264,17.794,96.676,96.676,0,0,0-31.851-5.436c-.575,0-1.164.005-1.75.016a93.26,93.26,0,0,0-68.605,31.991,96.727,96.727,0,0,0-18.76,32.9,102.162,102.162,0,0,0-5.168,38.227,107.221,107.221,0,0,0,33.6,72.056,102.231,102.231,0,0,0,32.6,20.615A97,97,0,0,0,1239.5,945c.574,0,1.163-.005,1.75-.016a92.775,92.775,0,0,0,27.687-4.732,43.884,43.884,0,0,0,6.449,11.944,27.176,27.176,0,0,0,3.561,3.886h-.015c-1.049-.168-26.032-4.157-54.924-7.258a35.432,35.432,0,0,0-3.739-.2c-6.232,0-13.024,1.6-20.187,4.767a97.151,97.151,0,0,0-17.783,10.489,140.187,140.187,0,0,0-17.034,14.741c1.922-1.607,7.469-3.515,14.476-4.979A138.077,138.077,0,0,1,1207.661,970.891Zm336.213,7.729h0l.024.025.026.026.012.012.026.026.043.044.06.063.033.033.108.112.049.05.015.016,0,0a1.465,1.465,0,0,0,.1.106,1.574,1.574,0,0,0-.118-.139l-.01-.012-.025-.029a3.011,3.011,0,0,0-.352-.337Zm-378.608,0a2.991,2.991,0,0,0-.345.333,2.19,2.19,0,0,0-.155.18,1.748,1.748,0,0,0,.124-.124l.005-.005.078-.082.119-.123.119-.122,0,0ZM547.035,928.272h0a106.987,106.987,0,0,0,81.1,39.908c.646.012,1.312.019,1.979.019a102.092,102.092,0,0,0,36.045-6.517,96.787,96.787,0,0,0,32.224-19.9,93.265,93.265,0,0,0,29.577-69.68,95.867,95.867,0,0,0-2.108-18.436,96.516,96.516,0,0,0,33.048-8.141,93.258,93.258,0,0,0,50.651-56.255,96.8,96.8,0,0,0,4.416-37.614,102.2,102.2,0,0,0-10.18-37.208,107.216,107.216,0,0,0-59.084-53.2,102.368,102.368,0,0,0-35.223-6.276c-.942,0-1.9.013-2.844.039a96.816,96.816,0,0,0-36.947,8.324,92.819,92.819,0,0,0-23.637,15.174,43.819,43.819,0,0,0-10.6-8.474,26.466,26.466,0,0,0-4.8-2.188c.22-.054,25.293-6.257,53.411-14.785,6.487-1.967,12.842-6.058,18.89-12.157a94.277,94.277,0,0,0,13.619-18,140.088,140.088,0,0,0,9.921-20.225c-1.177,2.3-5.915,6.507-12.07,10.715a130.5,130.5,0,0,1-11.631,7.053,146.481,146.481,0,0,1-14.474,6.815c-5.16,2.092-12.394,3.633-21.5,4.579a243.221,243.221,0,0,1-24.751,1.124c-14.084,0-25.487-.894-25.6-.9l-4.89.622-55.315,23.054a24.012,24.012,0,0,0-19.6-9.763,26.463,26.463,0,0,0-17.591,6.782,25.3,25.3,0,0,0-5.18,6.5,23.482,23.482,0,0,0-2.639,15.76L479.388,688.8l-3.844,3.086c-.08.1-8.148,9.87-18.667,20.619a231.573,231.573,0,0,1-17.343,16.176c-6.642,5.505-12.482,9.394-17.358,11.557a144.417,144.417,0,0,1-24.045,8.231,78.106,78.106,0,0,1-16.769,2.5,12.453,12.453,0,0,1-3.383-.349,139.712,139.712,0,0,0,21.437,6.912,95.626,95.626,0,0,0,21.5,2.714c8.984,0,16.647-1.732,22.777-5.148,25.417-14.163,46.839-27.587,47.739-28.152a28.683,28.683,0,0,0-2.044,6.127,45.451,45.451,0,0,0-.579,16.444c-.691-.04-1.387-.072-2.069-.1-1.1-.039-2.22-.058-3.321-.058a92.628,92.628,0,0,0-34.785,6.758,96.812,96.812,0,0,0-31.653,20.794,102.247,102.247,0,0,0-21.959,31.715,107.228,107.228,0,0,0-2.774,79.456,102.188,102.188,0,0,0,19.693,33.169,96.774,96.774,0,0,0,30.125,22.953,92.655,92.655,0,0,0,37.545,9.342c1.1.039,2.219.058,3.32.058a92.641,92.641,0,0,0,34.786-6.758,96.563,96.563,0,0,0,29.32-18.581ZM377.313,750.342s.044.025.211.105a2.952,2.952,0,0,0,.454.174l-.411-.173C377.412,750.381,377.323,750.344,377.313,750.342ZM342.874,614.621h0l.088.089.115.118.085.089.076.079c.1.1.136.14.14.141s-.02-.027-.154-.18a3.03,3.03,0,0,0-.35-.336Zm383.875-12.606s-.036.087-.115.293l-.146.377a3.1,3.1,0,0,0,.189-.445C726.737,602.056,726.75,602.017,726.749,602.014Zm277.285-102.743h0a104.263,104.263,0,0,0,7.915,8.843,107.216,107.216,0,0,0,73.185,31.065c.66.012,1.323.018,1.972.018a102.087,102.087,0,0,0,36.052-6.517,96.824,96.824,0,0,0,32.224-19.9,93.269,93.269,0,0,0,29.575-69.68,95.908,95.908,0,0,0-2.107-18.436,96.515,96.515,0,0,0,33.049-8.14,93.262,93.262,0,0,0,50.649-56.255,96.755,96.755,0,0,0,4.417-37.615,102.177,102.177,0,0,0-10.181-37.208,107.214,107.214,0,0,0-59.083-53.2,102.4,102.4,0,0,0-35.223-6.275c-.925,0-1.882.013-2.844.04a96.726,96.726,0,0,0-36.947,8.323,92.747,92.747,0,0,0-23.639,15.175,43.8,43.8,0,0,0-10.6-8.475,26.566,26.566,0,0,0-4.8-2.188l.051-.014c2.664-.664,26.794-6.715,53.359-14.772,6.487-1.968,12.842-6.059,18.888-12.157a94.4,94.4,0,0,0,13.62-18,139.941,139.941,0,0,0,9.919-20.226c-1.178,2.3-5.917,6.509-12.071,10.715a130.091,130.091,0,0,1-11.631,7.053,146.552,146.552,0,0,1-14.473,6.815c-5.163,2.093-12.4,3.633-21.5,4.579a243.27,243.27,0,0,1-24.751,1.124c-13.851,0-25.123-.866-25.6-.9l-4.894.622-55.315,23.054a24.007,24.007,0,0,0-19.594-9.763,26.458,26.458,0,0,0-17.592,6.782,25.264,25.264,0,0,0-5.18,6.5,23.487,23.487,0,0,0-2.64,15.759L936.388,259.8l-3.843,3.085c-.335.405-8.326,10.05-18.668,20.619a232.148,232.148,0,0,1-17.344,16.177c-6.647,5.507-12.486,9.4-17.357,11.557a144.384,144.384,0,0,1-24.045,8.231,78.109,78.109,0,0,1-16.768,2.5,12.451,12.451,0,0,1-3.384-.349,139.318,139.318,0,0,0,21.437,6.912,95.679,95.679,0,0,0,21.5,2.715c8.977,0,16.641-1.732,22.778-5.148,24.782-13.81,46.812-27.57,47.737-28.149l0,.007a29.2,29.2,0,0,0-2.041,6.118,45.371,45.371,0,0,0-.578,16.444c-.664-.037-1.359-.069-2.069-.1-1.121-.039-2.239-.059-3.322-.059a92.6,92.6,0,0,0-34.786,6.759,96.806,96.806,0,0,0-31.653,20.794,102.216,102.216,0,0,0-21.958,31.716,107.205,107.205,0,0,0-2.773,79.456,102.142,102.142,0,0,0,19.693,33.17,96.732,96.732,0,0,0,30.125,22.952,92.624,92.624,0,0,0,37.544,9.342c1.115.038,2.233.058,3.321.058a92.634,92.634,0,0,0,34.786-6.757,96.55,96.55,0,0,0,29.319-18.581ZM834.315,321.341a.188.188,0,0,0,.037.02l.005,0,.008,0,.013.006.006,0,.019.009.006,0,.029.015.012.005.069.033.007,0a2.942,2.942,0,0,0,.455.173l-.108-.045-.03-.013-.048-.021-.125-.052-.073-.031-.043-.019-.016-.007-.113-.047-.016-.007-.009,0Zm349.434-148.327h0s-.027.064-.076.191l0,.012,0,.009,0,.015,0,.012-.023.054-.035.094,0,.006a.057.057,0,0,1,0,.013l0,.013-.01.026-.013.034-.024.06-.017.046-.009.023-.024.064a3.386,3.386,0,0,0,.19-.444l.005-.016.034-.108,0-.005.013-.041c.012-.037.018-.053.018-.055Zm745.13-1.39h0l.182.187.1.106a3,3,0,0,0,.216.219.249.249,0,0,0-.019-.023l-.027-.031-.024-.029-.006-.007-.024-.028-.054-.062a3.09,3.09,0,0,0-.347-.333ZM63.519,1207H0v-18.962l39.7.259a22.7,22.7,0,0,0,3.073,7.332,24.088,24.088,0,0,0,5.351,5.88,25.281,25.281,0,0,0,7.12,3.95A26.2,26.2,0,0,0,63.519,1207Zm-.641-50.4h0c-4.332-.1-8.088-.15-11.165-.15h-.279c-3.077,0-6.834.051-11.165.15a97.944,97.944,0,0,1-19.314-8.5C14.343,1144.381,5.341,1138.4,0,1131.016v-156.5a88.631,88.631,0,0,1,13.222,12.224A89.555,89.555,0,0,1,23.98,1001.86c-.932-2.443-1.964-4.883-3.069-7.252A106.21,106.21,0,0,0,0,964.538v-44.2a78.791,78.791,0,0,1,25.663-15.752,82.359,82.359,0,0,1,29.072-5.224,86.617,86.617,0,0,1,17.157,1.727,88.363,88.363,0,0,1,16.728,5.163,89.646,89.646,0,0,1,15.73,8.577,91.526,91.526,0,0,1,14.16,11.967,89.652,89.652,0,0,1,16.476,23.738,103.726,103.726,0,0,0-15.931,12.242,105.928,105.928,0,0,0-23.726,32.8c-1.109,2.376-2.141,4.816-3.068,7.252a88.283,88.283,0,0,1,47.524-39.94,87.223,87.223,0,0,1,2.378,41.551,81.069,81.069,0,0,1-6.441,19.769,78.171,78.171,0,0,1-11.6,17.693c1.92-1.58,3.8-3.258,5.6-4.99a92.652,92.652,0,0,0,21.65-32.065,96.815,96.815,0,0,0,7.03-37.215c-.021-2.976-.175-5.989-.457-8.956a82.213,82.213,0,0,1,9.542-.56,79.711,79.711,0,0,1,16.879,1.8,78.154,78.154,0,0,1,16.407,5.531c41.393,19.3,58.576,70.376,38.3,113.852a89.411,89.411,0,0,1-32.756,37.535,87.23,87.23,0,0,1-22.016,10.154,82.61,82.61,0,0,1-23.777,3.533,78.535,78.535,0,0,1-21.869-3.087,61.968,61.968,0,0,0,.248-26.648,54.062,54.062,0,0,1-.117-19.637,64.826,64.826,0,0,1,5.372-16.548c-8.766,12.759-16.283,24.056-22.341,33.576-8.179,12.856-13.4,22.034-15.53,27.279a33.625,33.625,0,0,1-8.364,11.421,75.892,75.892,0,0,1-12.592,9.387,115.326,115.326,0,0,1-12.966,6.771A74.12,74.12,0,0,1,62.878,1156.6Zm-9.95-120.211h0c.86,0,5.7,5.56,10.66,12.723a97.314,97.314,0,0,1,6.47,10.583c1.916,3.743,2.9,6.661,2.921,8.674v.227q0,.415.01.848v.009c.059,5.021.139,11.9-.362,18.344a65.76,65.76,0,0,1-1.26,9.1,21.147,21.147,0,0,1-2.579,6.848c-.379.579-.528.952-.443,1.11a.19.19,0,0,0,.182.085c.63,0,2.714-1.417,5.438-3.7a114.476,114.476,0,0,0,9.55-9.092c4.917-5.236,13.238-15.1,13.725-22.351a102.872,102.872,0,0,0-.674-21.05c-.97-6.795-2.647-12.273-4.849-15.843-4.553-7.379-16.409-22.317-16.547-22.49a.053.053,0,0,1,0,.014l0,.009.008.028c.263.947,1.172,4.308,1.832,7.807.7,3.72,1.267,8.408-.022,9.619a24.433,24.433,0,0,0-4.017,5.012.043.043,0,0,1,0-.015,51.045,51.045,0,0,0-1.409-8.645,52.432,52.432,0,0,0-2.805-8.328,41.349,41.349,0,0,0-5.132-8.77,65.31,65.31,0,0,0-13.246-12.659,54.462,54.462,0,0,0-6.719-4.223s0,.021,0,.041c-.005,1.016-.057,6.38-.563,12.236a81.776,81.776,0,0,1-1.334,9.671c-.7,3.3-1.571,5.653-2.6,6.985-4.381,5.7-14.463,22.4-14.89,23.11l0,.005-.014-.072c-.65-3.184-3.923-19.065-4.547-19.065a.045.045,0,0,0-.037.024,44.577,44.577,0,0,0-1.5,5.135l-.006.023,0,.017,0,.011-.009.034c-1.028,3.882-2.307,8.712-2.949,9.384-1.055,1.107-7.939,22.792-8.231,23.715a19.053,19.053,0,0,0-2.482,8.2,20.209,20.209,0,0,0,1.2,8.528,27.541,27.541,0,0,0,6.639,9.952,108.461,108.461,0,0,0,15,12.914,21.7,21.7,0,0,0,4.685,2.634l-.009-.02a75.8,75.8,0,0,1-3.32-12.489,34.107,34.107,0,0,1-.416-9.934c.46-3.414,1.72-5.876,3.745-7.319a19.193,19.193,0,0,0,5.339-6.133,34.94,34.94,0,0,0,3.093-7.325,48.024,48.024,0,0,0,1.775-8.71l.016.067.037.174.027.125c1.542,7.266,2.564,12.276,2.877,14.109a35.186,35.186,0,0,1,2.621-6.321l0-.008.005-.01a95.811,95.811,0,0,0,4.856-11.624c1.483-4.713,1.659-8.155.538-10.524-.356-.749-.487-1.205-.392-1.357A.122.122,0,0,1,52.927,1036.393Zm-7.742,29.9a1.37,1.37,0,0,0,0,.628c.069.211.09.238.1.238A3.368,3.368,0,0,0,45.185,1066.295Zm113.785-22.92a61.9,61.9,0,0,0-5.08,5.715,81.4,81.4,0,0,0-9.731,15.51c8.286-12.062,14.753-21.143,14.811-21.224ZM1365.878,964.6h0c-4.372-.1-8.129-.15-11.165-.15h-.279c-3.087,0-6.843.05-11.164.15a74.347,74.347,0,0,1-9.49-3.571,114.9,114.9,0,0,1-12.965-6.771,75.649,75.649,0,0,1-12.592-9.387,33.649,33.649,0,0,1-8.365-11.421c-4.686-11.557-23.18-39.472-37.869-60.855a64.847,64.847,0,0,1,5.371,16.547,54.076,54.076,0,0,1-.116,19.636c-1.965,10.2-1.741,19.7.665,28.236a79.743,79.743,0,0,1-9.2.534,82.646,82.646,0,0,1-23.778-3.531,87.26,87.26,0,0,1-22.012-10.155,89.415,89.415,0,0,1-32.753-37.537c-20.271-43.477-3.087-94.55,38.305-113.852a78.015,78.015,0,0,1,16.406-5.53,79.566,79.566,0,0,1,16.88-1.8,82.335,82.335,0,0,1,10.4.664c0,.624,0,1.044,0,1.448a102.253,102.253,0,0,0,7.561,37.827,105.906,105.906,0,0,0,22.119,33.9c1.805,1.87,3.713,3.708,5.67,5.463a89.451,89.451,0,0,1-11.176-17.273,88.066,88.066,0,0,1-9.114-38.148,85.241,85.241,0,0,1,2.007-19.2,88.255,88.255,0,0,1,47.758,40.024c-.922-2.423-1.953-4.863-3.067-7.252a105.916,105.916,0,0,0-23.724-32.8,103.708,103.708,0,0,0-16.97-12.879,79.593,79.593,0,0,1,7.613-14.415,78.126,78.126,0,0,1,10.661-12.759,80.411,80.411,0,0,1,56.242-22.393,86.564,86.564,0,0,1,17.157,1.726,88.287,88.287,0,0,1,16.728,5.163,89.613,89.613,0,0,1,15.729,8.577,91.488,91.488,0,0,1,14.162,11.967,89.649,89.649,0,0,1,16.474,23.738,103.84,103.84,0,0,0-15.93,12.241,105.909,105.909,0,0,0-23.726,32.8c-1.113,2.386-2.145,4.826-3.067,7.252a88.29,88.29,0,0,1,47.522-39.94,87.232,87.232,0,0,1,2.38,41.552,81.136,81.136,0,0,1-6.442,19.768,78.158,78.158,0,0,1-11.6,17.693c1.916-1.577,3.8-3.255,5.6-4.99a92.66,92.66,0,0,0,21.649-32.065,96.773,96.773,0,0,0,7.03-37.215c-.021-2.988-.175-6-.458-8.955a82.091,82.091,0,0,1,9.544-.561,79.656,79.656,0,0,1,16.88,1.8,78.12,78.12,0,0,1,16.4,5.53,78.969,78.969,0,0,1,26.3,19.819,81.836,81.836,0,0,1,9.358,13.224,84.844,84.844,0,0,1,6.621,14.818,87.122,87.122,0,0,1,3.73,15.952,88.74,88.74,0,0,1,.684,16.623,89.754,89.754,0,0,1-2.515,16.834,91.633,91.633,0,0,1-5.874,16.582,89.4,89.4,0,0,1-32.755,37.534,87.188,87.188,0,0,1-22.015,10.155,82.639,82.639,0,0,1-23.779,3.532,78.523,78.523,0,0,1-21.867-3.087,61.988,61.988,0,0,0,.246-26.65,54.036,54.036,0,0,1-.116-19.636,64.851,64.851,0,0,1,5.371-16.548c-8.771,12.767-16.288,24.063-22.341,33.576-8.179,12.859-13.4,22.036-15.529,27.279a33.638,33.638,0,0,1-8.365,11.421,75.94,75.94,0,0,1-12.592,9.387,115.319,115.319,0,0,1-12.966,6.771A74.139,74.139,0,0,1,1365.878,964.6Zm-9.948-120.211c.858,0,5.7,5.559,10.66,12.723a97.345,97.345,0,0,1,6.469,10.584c1.918,3.743,2.9,6.661,2.921,8.673v.268l0,.1v.1c0,.068,0,.136,0,.205v.135l0,.262v.046c.058,5,.136,11.853-.362,18.307a66.11,66.11,0,0,1-1.263,9.1,21.166,21.166,0,0,1-2.577,6.849c-.38.578-.529.952-.443,1.11a.186.186,0,0,0,.181.085c.63,0,2.714-1.417,5.437-3.7a114.547,114.547,0,0,0,9.551-9.093c4.917-5.237,13.24-15.1,13.725-22.352a102.88,102.88,0,0,0-.674-21.051c-.969-6.795-2.646-12.273-4.849-15.842-4.563-7.394-16.056-21.875-16.543-22.487a.106.106,0,0,0,0,.018l0,.009,0,.006,0,.015c.261.938,1.167,4.274,1.834,7.807.7,3.72,1.264,8.408-.023,9.619a25.636,25.636,0,0,0-4.016,5.009,50.85,50.85,0,0,0-1.413-8.657,52.414,52.414,0,0,0-2.8-8.328,41.415,41.415,0,0,0-5.133-8.77,65.255,65.255,0,0,0-13.247-12.658,54.76,54.76,0,0,0-6.715-4.222.092.092,0,0,0,0,.023v.022c-.007,1.035-.069,6.489-.563,12.229a82.278,82.278,0,0,1-1.335,9.672c-.7,3.3-1.57,5.65-2.6,6.985-4.351,5.658-14.457,22.392-14.885,23.1l-.008.014c-.039-.192-3.878-19.137-4.56-19.137a.046.046,0,0,0-.038.024,44.725,44.725,0,0,0-1.488,5.1l-.01.038,0,.013,0,.008,0,.015-.008.03c-1.028,3.886-2.308,8.723-2.954,9.4-.987,1.038-7.025,19.919-8.225,23.693l-.006.022a19.124,19.124,0,0,0-2.481,8.2,20.176,20.176,0,0,0,1.194,8.528,27.562,27.562,0,0,0,6.639,9.952,108.487,108.487,0,0,0,15,12.914,21.416,21.416,0,0,0,4.685,2.633l-.009-.019a74.89,74.89,0,0,1-3.321-12.49,34.2,34.2,0,0,1-.416-9.934c.461-3.414,1.721-5.876,3.745-7.319a19.228,19.228,0,0,0,5.34-6.132,35.014,35.014,0,0,0,3.092-7.325,46.914,46.914,0,0,0,1.776-8.714.352.352,0,0,1,.01.04l.012.057.006.029.017.081.017.076.01.047c1.535,7.233,2.56,12.258,2.885,14.149a34.946,34.946,0,0,1,2.627-6.331l0-.01,0-.01.005-.011a95.538,95.538,0,0,0,4.847-11.6c1.483-4.715,1.659-8.158.537-10.526-.355-.75-.487-1.206-.39-1.357A.12.12,0,0,1,1355.929,844.393Zm-7.745,29.9a1.308,1.308,0,0,0,0,.625c.049.159.083.239.1.239A3.412,3.412,0,0,0,1348.185,874.3Zm-101.007-22.919h0l.027.035c1.6,2.249,7.391,10.425,14.785,21.186a81.426,81.426,0,0,0-9.732-15.51A59.709,59.709,0,0,0,1247.178,851.378Zm214.79,0,0,0a62.922,62.922,0,0,0-5.073,5.708,81.29,81.29,0,0,0-9.73,15.511c7.671-11.169,13.668-19.619,14.792-21.2l.015-.021Zm-840.787,83.1h0a89.626,89.626,0,0,1-17.709-1.776,91.446,91.446,0,0,1-17.583-5.456,89.608,89.608,0,0,1-24.442-15.413,103.773,103.773,0,0,0,9.881-17.492,105.946,105.946,0,0,0,9.025-39.461c.09-2.617.087-5.267-.01-7.875a88.291,88.291,0,0,1-28.14,55.335,87.222,87.222,0,0,1-18.425-37.319,81.092,81.092,0,0,1-1.795-20.714,78.178,78.178,0,0,1,3.762-20.818c-1.148,2.2-2.226,4.479-3.2,6.779a92.654,92.654,0,0,0-7.4,37.975,96.792,96.792,0,0,0,8.07,37c1.185,2.738,2.5,5.451,3.92,8.065a80.909,80.909,0,0,1-18.816,7.8,78.2,78.2,0,0,1-20.521,2.748c-.9,0-1.823-.016-2.733-.048-45.645-1.594-81.418-41.893-79.745-89.834a89.517,89.517,0,0,1,6.482-30.529,88.567,88.567,0,0,1,15.812-25.569,84.566,84.566,0,0,1,23.072-18.406,78.874,78.874,0,0,1,28.262-9.04,61.969,61.969,0,0,0,10.185,24.628,54.048,54.048,0,0,1,7.78,18.03,64.823,64.823,0,0,1,1.521,17.332c-2.873,14.139-5.24,24.872-5.34,25.322a62.3,62.3,0,0,0,2.443-7.243,81.455,81.455,0,0,0,2.9-18.079c3.087-15.188,5.593-28.524,7.445-39.636,2.5-15.027,3.729-25.517,3.637-31.179a33.613,33.613,0,0,1,3.236-13.781,75.865,75.865,0,0,1,7.923-13.561,115.133,115.133,0,0,1,9.291-11.3,74.088,74.088,0,0,1,7.339-6.995c4.046-1.609,7.523-3.031,10.336-4.225l.011,0,.118-.05c2.826-1.2,6.307-2.73,10.348-4.555a68.6,68.6,0,0,1,8.37-.435,109.991,109.991,0,0,1,23.048,2.412,60.894,60.894,0,0,1,11.56,3.717,30.653,30.653,0,0,1,9.153,6.016c8.829,8.807,36.761,27.277,58.638,41.22a64.847,64.847,0,0,1-11.41-13.134,54.035,54.035,0,0,1-7.564-18.121c-2.175-10.151-6.094-18.808-11.647-25.731a80.522,80.522,0,0,1,19.778-7.982,84.987,84.987,0,0,1,21.169-2.658,88.189,88.189,0,0,1,15.834,1.442,89.457,89.457,0,0,1,43.792,21.574,91.55,91.55,0,0,1,11.885,12.97,89.749,89.749,0,0,1,8.894,14.512,88.607,88.607,0,0,1,5.865,15.57,87.045,87.045,0,0,1,2.8,16.141,84.672,84.672,0,0,1-.3,16.227,81.791,81.791,0,0,1-3.446,15.829,78.989,78.989,0,0,1-16.464,28.519,78.112,78.112,0,0,1-17.335,14.391,80.877,80.877,0,0,1-20.271,8.815c-.177-.426-.367-.874-.566-1.334a102.2,102.2,0,0,0-21.74-31.865,105.91,105.91,0,0,0-33.607-22.567c-2.41-1.024-4.885-1.97-7.355-2.813a88.751,88.751,0,0,1,30.58,26.157,87.619,87.619,0,0,1,9.75,16.931,85.213,85.213,0,0,1,5.656,18.455c-1.916.128-3.858.192-5.772.192a87.691,87.691,0,0,1-27.908-4.564,88.883,88.883,0,0,1-25.923-13.809c1.8,1.872,3.7,3.715,5.657,5.477a105.919,105.919,0,0,0,34.654,20.921,103.605,103.605,0,0,0,20.651,5.225,79.5,79.5,0,0,1-1.375,16.245A78.134,78.134,0,0,1,698.333,885a79.579,79.579,0,0,1-31.12,36.38,84.92,84.92,0,0,1-21.884,9.738A87.879,87.879,0,0,1,621.181,934.481Zm-34.845-122.7v0a49.4,49.4,0,0,0,4.681,7.419,52.458,52.458,0,0,0,5.836,6.57,41.339,41.339,0,0,0,8.151,6.067,65.28,65.28,0,0,0,17.139,6.477,54.542,54.542,0,0,0,7.835,1.262.184.184,0,0,1-.016-.035c-.392-.938-2.441-5.9-4.264-11.485a81.916,81.916,0,0,1-2.552-9.424c-.648-3.312-.762-5.817-.339-7.444,1.831-7.053,4.649-26.9,4.677-27.1.109.158,10.881,15.837,11.658,15.837.023,0,.037-.013.043-.04a45.192,45.192,0,0,0-.633-5.348c-.574-4-1.288-8.968-.959-9.841.531-1.41-1.6-24.068-1.688-25.032v-.014a19.143,19.143,0,0,0-.919-8.517,20.211,20.211,0,0,0-4.432-7.384,27.539,27.539,0,0,0-10-6.567c-15.31-6.156-22.07-6.634-23.777-6.634-.28,0-.417.014-.418.014l.013.012a75.961,75.961,0,0,1,7.938,10.2,34.088,34.088,0,0,1,4.265,8.982c.91,3.322.713,6.081-.587,8.2a19.185,19.185,0,0,0-2.518,7.731,34.957,34.957,0,0,0,.015,7.951,47.324,47.324,0,0,0,1.77,8.715c-.009-.009-.09-.126-.232-.329-4.3-6.149-7.119-10.244-8.147-11.844a35.231,35.231,0,0,1,.057,6.847v.008a95.853,95.853,0,0,0,.072,12.6c.477,4.919,1.66,8.157,3.617,9.9.649.577.946.954.883,1.12-.024.063-.1.095-.229.095-1.313,0-8.062-3.374-15.129-7.89a94.69,94.69,0,0,1-9.8-7.07c-3.108-2.622-5.083-4.865-5.872-6.669l-.185-.423-.244-.557c-2.017-4.6-4.779-10.9-6.839-17.037a65.861,65.861,0,0,1-2.4-8.868,21.15,21.15,0,0,1-.3-7.314c.115-.638.114-1.032,0-1.171a.149.149,0,0,0-.119-.056.275.275,0,0,0-.106.025c-.58.246-1.944,2.364-3.56,5.528a114.312,114.312,0,0,0-5.239,12.1c-2.48,6.741-6.285,19.075-3.9,25.939a102.865,102.865,0,0,0,8.846,19.114c3.548,5.876,7.232,10.264,10.652,12.688,6.992,4.953,23.316,13.854,24.021,14.238a.444.444,0,0,1-.037-.044c-.613-.77-2.766-3.512-4.735-6.468-2.1-3.15-4.451-7.244-3.738-8.863a24.678,24.678,0,0,0,1.739-6.182Zm12.108-42.353h0a3.381,3.381,0,0,0,.434.76,1.375,1.375,0,0,0-.247-.579c-.106-.122-.167-.181-.184-.181Zm80.441-31.362h0A81.5,81.5,0,0,0,693.9,748.546a61.97,61.97,0,0,0,6.908,3.275c-.007,0-.076-.045-.2-.123-3.115-1.919-11.466-7.09-21.724-13.628ZM164.878,600.6h0c-4.318-.1-8.075-.15-11.165-.15h-.279c-3.091,0-6.847.05-11.165.15a74.221,74.221,0,0,1-9.49-3.571,115.143,115.143,0,0,1-12.966-6.771,75.809,75.809,0,0,1-12.592-9.387,33.609,33.609,0,0,1-8.364-11.421C94.17,557.9,75.675,529.982,60.986,508.6a64.8,64.8,0,0,1,5.371,16.547,54.026,54.026,0,0,1-.117,19.636c-1.965,10.194-1.74,19.694.667,28.237a79.942,79.942,0,0,1-9.2.534,81.981,81.981,0,0,1-15.637-1.519A85.416,85.416,0,0,1,26.964,567.6,88.066,88.066,0,0,1,12.8,560.429,89.4,89.4,0,0,1,0,550.708v-131.1a79.082,79.082,0,0,1,17.469-11.132,78.108,78.108,0,0,1,16.407-5.53,79.7,79.7,0,0,1,16.881-1.8,82.274,82.274,0,0,1,10.4.664c0,.609,0,1.042,0,1.449a102.193,102.193,0,0,0,7.561,37.827,105.9,105.9,0,0,0,22.118,33.9c1.813,1.879,3.721,3.717,5.671,5.463a88.784,88.784,0,0,1-17.93-36.026,87.655,87.655,0,0,1-2.359-19.4,85.205,85.205,0,0,1,2.005-19.2,88.251,88.251,0,0,1,47.76,40.025c-.922-2.42-1.953-4.861-3.068-7.252a105.92,105.92,0,0,0-23.725-32.8A103.675,103.675,0,0,0,82.219,392.93a79.455,79.455,0,0,1,7.612-14.416,78.181,78.181,0,0,1,10.661-12.759,80.414,80.414,0,0,1,56.243-22.393,86.629,86.629,0,0,1,17.156,1.726,88.437,88.437,0,0,1,16.728,5.163,89.515,89.515,0,0,1,15.729,8.578,91.447,91.447,0,0,1,14.16,11.966,89.619,89.619,0,0,1,16.476,23.738,103.754,103.754,0,0,0-15.93,12.241,105.922,105.922,0,0,0-23.726,32.8c-1.112,2.386-2.144,4.826-3.068,7.252a88.294,88.294,0,0,1,47.524-39.94,87.228,87.228,0,0,1,2.379,41.551,81.074,81.074,0,0,1-6.441,19.769,78.158,78.158,0,0,1-11.6,17.693c1.917-1.577,3.8-3.255,5.6-4.99a92.652,92.652,0,0,0,21.65-32.065,96.8,96.8,0,0,0,7.03-37.215c-.02-2.975-.174-5.989-.457-8.956a82.21,82.21,0,0,1,9.541-.56,79.633,79.633,0,0,1,16.88,1.8,78.1,78.1,0,0,1,16.407,5.53c41.393,19.3,58.576,70.376,38.3,113.852a89.422,89.422,0,0,1-32.755,37.534A87.275,87.275,0,0,1,286.3,570.987a82.646,82.646,0,0,1-23.777,3.532,78.538,78.538,0,0,1-21.869-3.087,61.968,61.968,0,0,0,.247-26.649,54.037,54.037,0,0,1-.116-19.636A64.819,64.819,0,0,1,246.16,508.6c-8.781,12.784-16.3,24.08-22.34,33.576-8.178,12.854-13.4,22.031-15.531,27.279a33.63,33.63,0,0,1-8.364,11.421,75.854,75.854,0,0,1-12.592,9.387,115.265,115.265,0,0,1-12.966,6.771A74.227,74.227,0,0,1,164.878,600.6Zm-9.95-120.211c.86,0,5.7,5.56,10.66,12.723a97.229,97.229,0,0,1,6.47,10.583c1.917,3.743,2.9,6.662,2.921,8.674l0,.38q0,.341.008.695v.009c.058,5.021.138,11.9-.362,18.344a65.963,65.963,0,0,1-1.259,9.1,21.164,21.164,0,0,1-2.58,6.849c-.379.578-.528.951-.443,1.11a.19.19,0,0,0,.182.086c.63,0,2.714-1.418,5.438-3.7a114.568,114.568,0,0,0,9.55-9.093c4.917-5.237,13.238-15.1,13.725-22.351a102.914,102.914,0,0,0-.674-21.051c-.97-6.794-2.647-12.272-4.849-15.842-4.5-7.291-16.057-21.875-16.547-22.492a.422.422,0,0,1,.015.05c.263.945,1.171,4.3,1.833,7.809.7,3.72,1.267,8.407-.021,9.619a24.485,24.485,0,0,0-4.016,5.01,51.069,51.069,0,0,0-1.412-8.658,52.425,52.425,0,0,0-2.805-8.328,41.352,41.352,0,0,0-5.132-8.77,65.3,65.3,0,0,0-13.246-12.66,55.116,55.116,0,0,0-6.718-4.223.3.3,0,0,1,0,.033c0,1.01-.053,6.344-.563,12.244a81.823,81.823,0,0,1-1.333,9.671c-.7,3.3-1.572,5.652-2.6,6.985-4.415,5.742-14.793,22.948-14.893,23.116-.039-.192-3.879-19.138-4.561-19.138a.046.046,0,0,0-.037.024,44.959,44.959,0,0,0-1.508,5.174v.005c-1.032,3.9-2.317,8.75-2.96,9.425-1.052,1.105-7.939,22.792-8.231,23.715a18.987,18.987,0,0,0-2.482,8.2,20.22,20.22,0,0,0,1.195,8.528,27.553,27.553,0,0,0,6.639,9.952,108.413,108.413,0,0,0,15,12.914,21.513,21.513,0,0,0,4.685,2.633l-.007-.016a75.278,75.278,0,0,1-3.321-12.493,34.053,34.053,0,0,1-.416-9.934c.46-3.414,1.72-5.877,3.744-7.319a19.185,19.185,0,0,0,5.339-6.134,34.961,34.961,0,0,0,3.093-7.324,47.337,47.337,0,0,0,1.775-8.71,1.39,1.39,0,0,1,.032.138l.016.075.032.153c1.536,7.233,2.558,12.243,2.877,14.108a35.1,35.1,0,0,1,2.618-6.314l.006-.012,0-.006a95.941,95.941,0,0,0,4.858-11.63c1.483-4.713,1.659-8.156.538-10.525-.355-.749-.487-1.206-.391-1.357A.123.123,0,0,1,154.928,480.393Zm-7.743,29.9a1.387,1.387,0,0,0,0,.628c.07.214.091.239.1.239A3.375,3.375,0,0,0,147.185,510.293ZM46.174,487.374h0l.013.018c.266.374,6.615,9.294,14.8,21.206a81.494,81.494,0,0,0-9.732-15.511,61.265,61.265,0,0,0-5.079-5.713Zm214.794,0a61.66,61.66,0,0,0-5.078,5.712,81.425,81.425,0,0,0-9.731,15.51c7.884-11.477,14.123-20.257,14.808-21.22ZM77.951,592.083h-.009c-1.05-.168-26.06-4.158-54.933-7.258a35.218,35.218,0,0,0-3.74-.2A49.667,49.667,0,0,0,0,589V572.98c.97.416,1.975.829,2.99,1.228A96.951,96.951,0,0,0,38.5,581c.57,0,1.16-.005,1.752-.016a92.839,92.839,0,0,0,27.688-4.732,43.86,43.86,0,0,0,6.449,11.944,27.109,27.109,0,0,0,3.559,3.886Zm1000.23-86.6h0a89.613,89.613,0,0,1-17.708-1.776,91.475,91.475,0,0,1-17.582-5.456,89.656,89.656,0,0,1-24.442-15.413,104.024,104.024,0,0,0,9.882-17.492,105.921,105.921,0,0,0,9.025-39.462c.09-2.6.087-5.251-.009-7.874a88.29,88.29,0,0,1-28.141,55.334,87.193,87.193,0,0,1-18.425-37.32,81.035,81.035,0,0,1-1.8-20.714,78.136,78.136,0,0,1,3.763-20.818c-1.136,2.173-2.214,4.454-3.2,6.781a92.644,92.644,0,0,0-7.4,37.975,96.743,96.743,0,0,0,8.07,37c1.183,2.733,2.5,5.446,3.921,8.065a80.954,80.954,0,0,1-18.818,7.8,78.3,78.3,0,0,1-20.524,2.749c-.89,0-1.809-.016-2.729-.048-45.644-1.594-81.417-41.894-79.744-89.835a89.484,89.484,0,0,1,6.484-30.529,88.532,88.532,0,0,1,15.81-25.569,84.546,84.546,0,0,1,23.072-18.406,78.857,78.857,0,0,1,28.26-9.04,61.991,61.991,0,0,0,10.187,24.628,54.039,54.039,0,0,1,7.779,18.03,64.837,64.837,0,0,1,1.522,17.331c3.083-15.179,5.589-28.514,7.446-39.636,2.5-15.029,3.728-25.519,3.637-31.179a33.6,33.6,0,0,1,3.235-13.782,75.8,75.8,0,0,1,7.921-13.56,115.072,115.072,0,0,1,9.293-11.3,73.653,73.653,0,0,1,7.339-7c4.038-1.606,7.516-3.027,10.337-4.225l.02-.009.006,0,.023-.01.014-.005.023-.01.021-.009.021-.008c2.8-1.187,6.282-2.72,10.346-4.556a68.617,68.617,0,0,1,8.37-.435,109.922,109.922,0,0,1,23.048,2.412,60.908,60.908,0,0,1,11.562,3.718,30.643,30.643,0,0,1,9.153,6.017c4.011,4,12.407,10.407,24.954,19.042,9.284,6.389,20.617,13.85,33.684,22.177a64.754,64.754,0,0,1-11.41-13.134,54.032,54.032,0,0,1-7.564-18.12c-2.178-10.154-6.1-18.811-11.648-25.732a80.508,80.508,0,0,1,19.779-7.982,84.878,84.878,0,0,1,21.169-2.658,88.188,88.188,0,0,1,15.835,1.442,89.458,89.458,0,0,1,43.791,21.574,91.562,91.562,0,0,1,11.885,12.97,89.774,89.774,0,0,1,8.894,14.512,88.591,88.591,0,0,1,5.865,15.569,87.083,87.083,0,0,1,2.8,16.141,84.694,84.694,0,0,1-.3,16.227,81.882,81.882,0,0,1-3.445,15.829,78.99,78.99,0,0,1-16.466,28.518,78.149,78.149,0,0,1-17.333,14.391,80.893,80.893,0,0,1-20.273,8.815c-.235-.562-.4-.948-.565-1.333a102.257,102.257,0,0,0-21.74-31.866,105.913,105.913,0,0,0-33.606-22.567c-2.4-1.02-4.875-1.966-7.355-2.813a88.722,88.722,0,0,1,30.581,26.157,87.834,87.834,0,0,1,9.75,16.931,85.43,85.43,0,0,1,5.655,18.455c-1.946.128-3.888.193-5.772.193a87.664,87.664,0,0,1-27.908-4.564,88.919,88.919,0,0,1-25.925-13.81c1.8,1.873,3.7,3.717,5.658,5.477a105.958,105.958,0,0,0,34.654,20.921,103.738,103.738,0,0,0,20.653,5.225,79.65,79.65,0,0,1-1.374,16.244,78.3,78.3,0,0,1-4.829,15.91,79.557,79.557,0,0,1-31.119,36.379,84.982,84.982,0,0,1-21.884,9.738A87.849,87.849,0,0,1,1078.18,505.481Zm-34.845-122.7h0a48.29,48.29,0,0,0,4.683,7.422,52.327,52.327,0,0,0,5.833,6.569,41.321,41.321,0,0,0,8.152,6.067,65.262,65.262,0,0,0,17.14,6.477,55.531,55.531,0,0,0,7.835,1.263l-.015-.029c-.385-.914-2.4-5.765-4.268-11.491a81.334,81.334,0,0,1-2.549-9.425c-.648-3.315-.763-5.819-.34-7.444,1.8-6.936,4.649-26.9,4.677-27.1.108.158,10.873,15.837,11.66,15.837a.044.044,0,0,0,.043-.04,45.17,45.17,0,0,0-.634-5.343l0-.021,0-.01,0-.014c-.572-3.977-1.285-8.926-.953-9.8.558-1.488-1.667-24.811-1.689-25.046a19.569,19.569,0,0,0-.919-8.517,20.2,20.2,0,0,0-4.432-7.384,27.526,27.526,0,0,0-10-6.567c-15.3-6.155-22.066-6.633-23.775-6.633a4.119,4.119,0,0,0-.417.014l.015.015a75.29,75.29,0,0,1,7.933,10.2,34.068,34.068,0,0,1,4.264,8.982c.911,3.321.714,6.08-.586,8.2a19.218,19.218,0,0,0-2.519,7.731,35.02,35.02,0,0,0,.015,7.951,46.238,46.238,0,0,0,1.772,8.714.259.259,0,0,1-.033-.044l-.011-.016-.008-.01-.041-.059-.017-.023-.082-.119c-4.249-6.071-7.157-10.3-8.187-11.9a35.006,35.006,0,0,1,.056,6.826l0,.015v.128a95.165,95.165,0,0,0,.078,12.49c.477,4.916,1.66,8.154,3.617,9.9.649.577.946.954.884,1.12-.027.063-.1.1-.229.1-1.314,0-8.063-3.374-15.13-7.89a94.493,94.493,0,0,1-9.8-7.07c-3.11-2.624-5.085-4.868-5.871-6.669l-.163-.371-.266-.611,0-.009c-2.013-4.59-4.769-10.875-6.835-17.027a65.88,65.88,0,0,1-2.4-8.867,21.167,21.167,0,0,1-.3-7.313c.114-.64.113-1.034,0-1.17a.147.147,0,0,0-.119-.057.3.3,0,0,0-.106.025c-.58.245-1.944,2.363-3.56,5.528a113.891,113.891,0,0,0-5.238,12.1c-2.481,6.74-6.287,19.071-3.9,25.939a102.779,102.779,0,0,0,8.846,19.113c3.549,5.878,7.233,10.266,10.653,12.688,6.753,4.786,22.27,13.284,24.016,14.237a.013.013,0,0,0,0-.006l-.016-.02-.01-.012c-.618-.778-2.786-3.542-4.737-6.473-2.1-3.149-4.452-7.243-3.74-8.863a25.026,25.026,0,0,0,1.739-6.181h0ZM965.43,381.43c-3,14.737-5.315,25.2-5.338,25.308l0,.005v.005l0-.008a64.191,64.191,0,0,0,2.439-7.237A81.5,81.5,0,0,0,965.43,381.43Zm90.015-41,0,0a3.339,3.339,0,0,0,.438.755,1.409,1.409,0,0,0-.247-.579C1055.522,340.492,1055.462,340.433,1055.445,340.433Zm80.443-31.363h0a81.575,81.575,0,0,0,15.015,10.475,62.923,62.923,0,0,0,6.908,3.275l-.01-.005-.007,0-.008,0-.024-.014-.031-.02-.031-.019-.064-.04c-3.094-1.906-11.407-7.052-21.748-13.644ZM1750.877,157.6h0c-4.283-.1-8.04-.15-11.164-.15h-.278c-3.127,0-6.883.051-11.165.15a74.23,74.23,0,0,1-9.491-3.571,115.41,115.41,0,0,1-12.964-6.771,75.7,75.7,0,0,1-12.592-9.387,33.667,33.667,0,0,1-8.365-11.421c-2.128-5.248-7.353-14.426-15.53-27.279-6.054-9.514-13.57-20.81-22.34-33.574a64.8,64.8,0,0,1,5.371,16.547,54.07,54.07,0,0,1-.116,19.635c-1.965,10.191-1.741,19.691.666,28.236a79.457,79.457,0,0,1-9.2.534,82.611,82.611,0,0,1-23.776-3.531,87.263,87.263,0,0,1-22.013-10.154,89.405,89.405,0,0,1-32.754-37.537,91.18,91.18,0,0,1-6.722-20.347,89.353,89.353,0,0,1-1.748-20.568,87.889,87.889,0,0,1,2.946-19.943A85.179,85.179,0,0,1,1566.994,0h88.518a105.99,105.99,0,0,0,21.321,31.991c1.791,1.857,3.7,3.7,5.67,5.463A89.36,89.36,0,0,1,1671,19.507,88.43,88.43,0,0,1,1664.25,0h46.043c.569.924,1.137,1.886,1.688,2.86-.337-.885-.719-1.847-1.138-2.86h20.524c-.448,7.314-1.54,16.754-4.191,20.2-4.469,5.813-14.789,22.944-14.892,23.115l-.011-.05c-.4-1.954-3.906-19.086-4.55-19.086a.042.042,0,0,0-.038.023,43.838,43.838,0,0,0-1.483,5.08l0,.008,0,.01,0,.011,0,.008-.007.018-.005.024v.006l0,.008,0,.009,0,.008-.009.033,0,.007c-1.027,3.877-2.305,8.7-2.948,9.373-.994,1.045-7.026,19.922-8.225,23.695l-.005.02a18.621,18.621,0,0,0-2.482,8.2,20.215,20.215,0,0,0,1.195,8.53,27.588,27.588,0,0,0,6.641,9.951,108.3,108.3,0,0,0,15,12.915,21.386,21.386,0,0,0,4.684,2.632l-.007-.018a75.906,75.906,0,0,1-3.32-12.491,34.047,34.047,0,0,1-.416-9.934c.459-3.412,1.718-5.874,3.743-7.319a19.182,19.182,0,0,0,5.34-6.133,35.005,35.005,0,0,0,3.092-7.325,48.28,48.28,0,0,0,1.775-8.711l0,.005,0,.013a.207.207,0,0,0,0,.026l0,.02.007.027.006.034.037.171.024.113c1.547,7.3,2.539,12.162,2.866,14.066a34.47,34.47,0,0,1,2.583-6.238l0-.01.007-.016.007-.012.009-.02.007-.015.008-.016,0-.01.005-.011,0-.008.006-.012a95.6,95.6,0,0,0,4.842-11.593c1.482-4.713,1.658-8.156.537-10.525-.355-.753-.487-1.209-.391-1.356a.123.123,0,0,1,.111-.056c.857,0,5.7,5.557,10.659,12.722a97.919,97.919,0,0,1,6.469,10.584c1.918,3.744,2.9,6.662,2.921,8.674l0,.147v.038c0,.116,0,.231,0,.349V70.2c0,.083,0,.164,0,.245v.047c.059,5,.14,11.855-.36,18.308a66.023,66.023,0,0,1-1.26,9.1,21.225,21.225,0,0,1-2.581,6.85c-.38.58-.528.953-.442,1.11a.185.185,0,0,0,.18.085c.627,0,2.711-1.417,5.44-3.7a114.652,114.652,0,0,0,9.549-9.093c4.917-5.236,13.239-15.1,13.725-22.351a102.867,102.867,0,0,0-.674-21.05c-.97-6.791-2.646-12.27-4.847-15.843-4.251-6.885-15.28-20.887-16.523-22.461l-.023-.028,0,.008,0,.009v.009l.007.024c.264.952,1.175,4.33,1.832,7.808.7,3.72,1.264,8.409-.024,9.618a24.58,24.58,0,0,0-4.018,5.014V33.9a50.378,50.378,0,0,0-1.411-8.655,52.523,52.523,0,0,0-2.8-8.327,41.377,41.377,0,0,0-5.133-8.77A61.41,61.41,0,0,0,1744,0h37.8c-.528,1.239-1.047,2.526-1.543,3.827.735-1.3,1.506-2.588,2.292-3.827h48.458a79.756,79.756,0,0,1-18.886,42.9c1.92-1.578,3.8-3.257,5.6-4.99a92.638,92.638,0,0,0,21.651-32.065c.781-1.928,1.5-3.894,2.147-5.845h83.2a85.011,85.011,0,0,1,6.694,15.408A86.964,86.964,0,0,1,1935,31.994V52.411a90.564,90.564,0,0,1-7.922,27.888,89.434,89.434,0,0,1-32.757,37.535,87.175,87.175,0,0,1-22.015,10.154,82.6,82.6,0,0,1-23.777,3.532,78.526,78.526,0,0,1-21.869-3.087,62,62,0,0,0,.246-26.649,54.075,54.075,0,0,1-.116-19.636,64.771,64.771,0,0,1,5.371-16.548c-8.8,12.807-16.315,24.1-22.34,33.576-8.176,12.85-13.4,22.028-15.53,27.279a33.633,33.633,0,0,1-8.365,11.421,75.691,75.691,0,0,1-12.592,9.387,115.276,115.276,0,0,1-12.966,6.771A73.952,73.952,0,0,1,1750.877,157.6ZM1733.185,67.3a1.376,1.376,0,0,0,0,.624c.061.2.088.238.1.238A3.343,3.343,0,0,0,1733.185,67.3ZM1632.179,44.378h0l.011.015.005.01c.052.072,6.534,9.178,14.793,21.2a81.55,81.55,0,0,0-9.733-15.511A62.061,62.061,0,0,0,1632.179,44.378Zm214.788,0a61.516,61.516,0,0,0-5.075,5.709,81.418,81.418,0,0,0-9.731,15.51c7.356-10.706,13.193-18.947,14.807-21.217Zm-1260.786,82.1h0a89.593,89.593,0,0,1-17.708-1.776,91.511,91.511,0,0,1-17.583-5.456,89.681,89.681,0,0,1-24.441-15.413,103.664,103.664,0,0,0,9.881-17.493,105.935,105.935,0,0,0,9.025-39.461c.09-2.65.086-5.3-.011-7.874A88.293,88.293,0,0,1,517.2,94.342a87.225,87.225,0,0,1-18.427-37.319,81.077,81.077,0,0,1-1.795-20.713,78.071,78.071,0,0,1,3.763-20.818c-1.137,2.175-2.215,4.457-3.2,6.78a92.637,92.637,0,0,0-7.4,37.975,96.787,96.787,0,0,0,8.069,37c1.189,2.746,2.508,5.46,3.92,8.065a80.93,80.93,0,0,1-18.817,7.8,78.284,78.284,0,0,1-20.523,2.749c-.888,0-1.807-.016-2.73-.048-45.645-1.595-81.418-41.895-79.745-89.835A89.735,89.735,0,0,1,385.1,0h88.389c-.005.8-.026,1.611-.06,2.423l.116-.569c.1-.491.232-1.145.374-1.854h50.494c3.237,5.077,6.581,8.917,9.671,11.107,6.86,4.861,22.282,13.292,24.018,14.237l-.005-.005,0,0-.013-.017-.006-.007c-.609-.765-2.751-3.491-4.741-6.476-2.1-3.15-4.451-7.245-3.738-8.864a24.688,24.688,0,0,0,1.739-6.181l.007.012a49.786,49.786,0,0,0,4.676,7.406,52.188,52.188,0,0,0,5.835,6.57,41.428,41.428,0,0,0,8.151,6.067,65.288,65.288,0,0,0,17.139,6.477,54.444,54.444,0,0,0,7.834,1.262l0-.009,0,0a.2.2,0,0,0-.009-.021c-.4-.948-2.46-5.955-4.262-11.485a81.516,81.516,0,0,1-2.554-9.424c-.647-3.316-.761-5.821-.339-7.444.222-.857.467-1.932.729-3.2h67a87.605,87.605,0,0,1,7.907,15.15,85.108,85.108,0,0,1,4.73,16.249c-1.894.128-3.834.193-5.768.193A87.637,87.637,0,0,1,634.5,27.027a88.908,88.908,0,0,1-25.924-13.81c1.8,1.871,3.7,3.715,5.656,5.478a105.9,105.9,0,0,0,34.656,20.92,103.573,103.573,0,0,0,20.65,5.226,79.445,79.445,0,0,1-1.374,16.244A78.051,78.051,0,0,1,663.333,77a79.593,79.593,0,0,1-31.12,36.38,84.975,84.975,0,0,1-21.885,9.737A87.829,87.829,0,0,1,586.181,126.482ZM473.432,2.429c-2.881,14.163-5.236,24.849-5.335,25.3l0,.014,0,.008,0-.006,0-.006,0-.009a61.025,61.025,0,0,0,2.434-7.224A81.419,81.419,0,0,0,473.432,2.429ZM685.458,28.435h0c-.183-.438-.363-.861-.567-1.334A102,102,0,0,0,667.639,0h59.743c-1.367,1.806-2.82,3.565-4.319,5.228a78.14,78.14,0,0,1-17.336,14.391A80.879,80.879,0,0,1,685.458,28.435Z" transform="translate(0)" fill="#ef7373"/>
</svg>
