<svg xmlns="http://www.w3.org/2000/svg" width="166.54" height="182.552" viewBox="0 0 166.54 182.552">
  <g id="Group_4" data-name="Group 4" transform="translate(-686.209 -1179.332)">
    <path id="Path_10" data-name="Path 10" d="M688.709,1431.049s1.3-26.159,40.115-54.783,95.65-63.725,95.274-70.411" transform="translate(0 -71.664)" fill="none" stroke="#e66060" stroke-linecap="round" stroke-width="5"/>
    <path id="Path_11" data-name="Path 11" d="M729.193,1420.081s3.51-54.615,27.287-61.469" transform="translate(-23.392 -102.149)" fill="none" stroke="#3b5441" stroke-linecap="round" stroke-width="5"/>
    <path id="Path_12" data-name="Path 12" d="M803.527,1331.273s12.285-36.354,40.491-37.692" transform="translate(-66.345 -64.572)" fill="none" stroke="#3b5441" stroke-linecap="round" stroke-width="5"/>
    <path id="Path_13" data-name="Path 13" d="M909.536,1245.515s3.218-31.215,39.948-35.477,22.816-28.206,22.816-28.206" transform="translate(-127.6)" fill="none" stroke="#3b5441" stroke-linecap="round" stroke-width="5"/>
    <path id="Path_14" data-name="Path 14" d="M1022.783,1234.589s6.644,60.507-34.558,69.45" transform="translate(-173.069 -30.485)" fill="none" stroke="#3b5441" stroke-linecap="round" stroke-width="5"/>
    <path id="Path_15" data-name="Path 15" d="M958.277,1399.1s2.424,32.677-45.673,35.1" transform="translate(-129.373 -125.541)" fill="none" stroke="#3b5441" stroke-linecap="round" stroke-width="5"/>
    <path id="Path_16" data-name="Path 16" d="M752.948,1511.174s70.035,6.1,70.2-10.029" transform="translate(-37.119 -184.508)" fill="none" stroke="#3b5441" stroke-linecap="round" stroke-width="5"/>
  </g>
</svg>
